<?xml version="1.0" encoding="UTF-8" standalone="no"?>
<!DOCTYPE svg PUBLIC "-//W3C//DTD SVG 1.1//EN"
 "http://www.w3.org/Graphics/SVG/1.1/DTD/svg11.dtd">
<!-- Generated by graphviz version 2.36.0 (20140111.2315)
 -->
<!-- Title: controllers_diagram Pages: 1 -->
<svg width="545pt" height="405pt"
 viewBox="0.00 0.00 545.00 405.00" xmlns="http://www.w3.org/2000/svg" xmlns:xlink="http://www.w3.org/1999/xlink">
<g id="graph0" class="graph" transform="scale(1 1) rotate(0) translate(4 401)">
<title>controllers_diagram</title>
<polygon fill="none" stroke="none" points="-4,4 -4,-401 541,-401 541,4 -4,4"/>
<!-- _diagram_info -->
<g id="node1" class="node"><title>_diagram_info</title>
<text text-anchor="start" x="331" y="-318.6" font-family="Times,serif" font-size="13.00">Controllers diagram</text>
<text text-anchor="start" x="331" y="-304.6" font-family="Times,serif" font-size="13.00">Date: Jul 17 2017 &#45; 19:15</text>
<text text-anchor="start" x="331" y="-290.6" font-family="Times,serif" font-size="13.00">Migration version: 20170716230705</text>
<text text-anchor="start" x="331" y="-276.6" font-family="Times,serif" font-size="13.00">Generated by RailRoady 1.5.3</text>
<text text-anchor="start" x="331" y="-262.6" font-family="Times,serif" font-size="13.00">http://railroady.prestonlee.com</text>
</g>
<!-- SiteController -->
<g id="node2" class="node"><title>SiteController</title>
<path fill="none" stroke="black" d="M12,-136.5C12,-136.5 81,-136.5 81,-136.5 87,-136.5 93,-142.5 93,-148.5 93,-148.5 93,-217.5 93,-217.5 93,-223.5 87,-229.5 81,-229.5 81,-229.5 12,-229.5 12,-229.5 6,-229.5 0,-223.5 0,-217.5 0,-217.5 0,-148.5 0,-148.5 0,-142.5 6,-136.5 12,-136.5"/>
<text text-anchor="middle" x="46.5" y="-214.3" font-family="Times,serif" font-size="14.00">SiteController</text>
<polyline fill="none" stroke="black" points="0,-206.5 93,-206.5 "/>
<text text-anchor="start" x="8" y="-191.3" font-family="Times,serif" font-size="14.00">home</text>
<polyline fill="none" stroke="black" points="0,-183.5 93,-183.5 "/>
<polyline fill="none" stroke="black" points="0,-159.5 93,-159.5 "/>
<text text-anchor="start" x="8" y="-144.3" font-family="Times,serif" font-size="14.00">_layout</text>
</g>
<!-- ApplicationController -->
<g id="node3" class="node"><title>ApplicationController</title>
<path fill="none" stroke="black" d="M131,-272.5C131,-272.5 271,-272.5 271,-272.5 277,-272.5 283,-278.5 283,-284.5 283,-284.5 283,-384.5 283,-384.5 283,-390.5 277,-396.5 271,-396.5 271,-396.5 131,-396.5 131,-396.5 125,-396.5 119,-390.5 119,-384.5 119,-384.5 119,-284.5 119,-284.5 119,-278.5 125,-272.5 131,-272.5"/>
<text text-anchor="middle" x="201" y="-381.3" font-family="Times,serif" font-size="14.00">ApplicationController</text>
<polyline fill="none" stroke="black" points="119,-373.5 283,-373.5 "/>
<polyline fill="none" stroke="black" points="119,-349.5 283,-349.5 "/>
<polyline fill="none" stroke="black" points="119,-325.5 283,-325.5 "/>
<text text-anchor="start" x="127" y="-310.3" font-family="Times,serif" font-size="14.00">_layout</text>
<text text-anchor="start" x="127" y="-295.3" font-family="Times,serif" font-size="14.00">after_sign_in_path_for</text>
<text text-anchor="start" x="127" y="-280.3" font-family="Times,serif" font-size="14.00">check_if_user_has_profile!</text>
</g>
<!-- ProfilesController -->
<g id="node4" class="node"><title>ProfilesController</title>
<path fill="none" stroke="black" d="M131,-0.5C131,-0.5 245,-0.5 245,-0.5 251,-0.5 257,-6.5 257,-12.5 257,-12.5 257,-231.5 257,-231.5 257,-237.5 251,-243.5 245,-243.5 245,-243.5 131,-243.5 131,-243.5 125,-243.5 119,-237.5 119,-231.5 119,-231.5 119,-12.5 119,-12.5 119,-6.5 125,-0.5 131,-0.5"/>
<text text-anchor="middle" x="188" y="-228.3" font-family="Times,serif" font-size="14.00">ProfilesController</text>
<polyline fill="none" stroke="black" points="119,-220.5 257,-220.5 "/>
<text text-anchor="start" x="127" y="-205.3" font-family="Times,serif" font-size="14.00">create</text>
<text text-anchor="start" x="127" y="-190.3" font-family="Times,serif" font-size="14.00">edit</text>
<text text-anchor="start" x="127" y="-175.3" font-family="Times,serif" font-size="14.00">index</text>
<text text-anchor="start" x="127" y="-160.3" font-family="Times,serif" font-size="14.00">new</text>
<text text-anchor="start" x="127" y="-145.3" font-family="Times,serif" font-size="14.00">show</text>
<text text-anchor="start" x="127" y="-130.3" font-family="Times,serif" font-size="14.00">update</text>
<polyline fill="none" stroke="black" points="119,-122.5 257,-122.5 "/>
<polyline fill="none" stroke="black" points="119,-98.5 257,-98.5 "/>
<text text-anchor="start" x="127" y="-83.3" font-family="Times,serif" font-size="14.00">_layout</text>
<text text-anchor="start" x="127" y="-68.3" font-family="Times,serif" font-size="14.00">load_countries</text>
<text text-anchor="start" x="127" y="-53.3" font-family="Times,serif" font-size="14.00">load_interests</text>
<text text-anchor="start" x="127" y="-38.3" font-family="Times,serif" font-size="14.00">profile_params</text>
<text text-anchor="start" x="127" y="-23.3" font-family="Times,serif" font-size="14.00">restrict_profile_access</text>
<text text-anchor="start" x="127" y="-8.3" font-family="Times,serif" font-size="14.00">search_params</text>
</g>
<!-- ConversationsController -->
<g id="node5" class="node"><title>ConversationsController</title>
<path fill="none" stroke="black" d="M301,-51.5C301,-51.5 426,-51.5 426,-51.5 432,-51.5 438,-57.5 438,-63.5 438,-63.5 438,-207.5 438,-207.5 438,-213.5 432,-219.5 426,-219.5 426,-219.5 301,-219.5 301,-219.5 295,-219.5 289,-213.5 289,-207.5 289,-207.5 289,-63.5 289,-63.5 289,-57.5 295,-51.5 301,-51.5"/>
<text text-anchor="middle" x="363.5" y="-204.3" font-family="Times,serif" font-size="14.00">ConversationsController</text>
<polyline fill="none" stroke="black" points="289,-196.5 438,-196.5 "/>
<text text-anchor="start" x="297" y="-181.3" font-family="Times,serif" font-size="14.00">create</text>
<text text-anchor="start" x="297" y="-166.3" font-family="Times,serif" font-size="14.00">index</text>
<text text-anchor="start" x="297" y="-151.3" font-family="Times,serif" font-size="14.00">new</text>
<text text-anchor="start" x="297" y="-136.3" font-family="Times,serif" font-size="14.00">show</text>
<polyline fill="none" stroke="black" points="289,-128.5 438,-128.5 "/>
<polyline fill="none" stroke="black" points="289,-104.5 438,-104.5 "/>
<text text-anchor="start" x="297" y="-89.3" font-family="Times,serif" font-size="14.00">_layout</text>
<text text-anchor="start" x="297" y="-74.3" font-family="Times,serif" font-size="14.00">load_conversations</text>
<text text-anchor="start" x="297" y="-59.3" font-family="Times,serif" font-size="14.00">load_profile</text>
</g>
</g>
</svg>
