<?xml version="1.0" encoding="UTF-8" standalone="no"?>
<!DOCTYPE svg PUBLIC "-//W3C//DTD SVG 1.1//EN"
 "http://www.w3.org/Graphics/SVG/1.1/DTD/svg11.dtd">
<!-- Generated by graphviz version 2.36.0 (20140111.2315)
 -->
<!-- Title: models_diagram Pages: 1 -->
<svg width="654pt" height="302pt"
 viewBox="0.00 0.00 654.00 302.00" xmlns="http://www.w3.org/2000/svg" xmlns:xlink="http://www.w3.org/1999/xlink">
<g id="graph0" class="graph" transform="scale(1 1) rotate(0) translate(4 298)">
<title>models_diagram</title>
<polygon fill="none" stroke="none" points="-4,4 -4,-298 650,-298 650,4 -4,4"/>
<!-- _diagram_info -->
<g id="node1" class="node"><title>_diagram_info</title>
<text text-anchor="start" x="8" y="-279.6" font-family="Times,serif" font-size="13.00">Models diagram</text>
<text text-anchor="start" x="8" y="-265.6" font-family="Times,serif" font-size="13.00">Date: Jul 17 2017 &#45; 19:38</text>
<text text-anchor="start" x="8" y="-251.6" font-family="Times,serif" font-size="13.00">Migration version: 20170716230705</text>
<text text-anchor="start" x="8" y="-237.6" font-family="Times,serif" font-size="13.00">Generated by RailRoady 1.5.3</text>
<text text-anchor="start" x="8" y="-223.6" font-family="Times,serif" font-size="13.00">http://railroady.prestonlee.com</text>
</g>
<!-- Profile -->
<g id="node2" class="node"><title>Profile</title>
<ellipse fill="none" stroke="black" cx="314" cy="-162" rx="34.1708" ry="18"/>
<text text-anchor="middle" x="314" y="-158.3" font-family="Times,serif" font-size="14.00">Profile</text>
</g>
<!-- Conversation -->
<g id="node9" class="node"><title>Conversation</title>
<ellipse fill="none" stroke="black" cx="352" cy="-90" rx="57.2688" ry="18"/>
<text text-anchor="middle" x="352" y="-86.3" font-family="Times,serif" font-size="14.00">Conversation</text>
</g>
<!-- Profile&#45;&gt;Conversation -->
<g id="edge1" class="edge"><title>Profile&#45;&gt;Conversation</title>
<path fill="none" stroke="#660219" d="M327.927,-135.345C331.179,-129.354 334.645,-122.97 337.904,-116.966"/>
<polygon fill="#660219" stroke="#660219" points="327.776,-135.622 319.051,-142.264 325.391,-140.017 323.005,-144.411 323.005,-144.411 323.005,-144.411 325.391,-140.017 326.96,-146.558 327.776,-135.622 327.776,-135.622"/>
<polygon fill="#660219" stroke="#660219" points="338.024,-116.745 346.75,-110.103 340.41,-112.35 342.795,-107.956 342.795,-107.956 342.795,-107.956 340.41,-112.35 338.84,-105.809 338.024,-116.745 338.024,-116.745"/>
</g>
<!-- Interest -->
<g id="node10" class="node"><title>Interest</title>
<ellipse fill="none" stroke="black" cx="465" cy="-90" rx="37.0701" ry="18"/>
<text text-anchor="middle" x="465" y="-86.3" font-family="Times,serif" font-size="14.00">Interest</text>
</g>
<!-- Profile&#45;&gt;Interest -->
<g id="edge2" class="edge"><title>Profile&#45;&gt;Interest</title>
<path fill="none" stroke="#aaab98" d="M348.201,-145.145C372.528,-133.868 405.118,-118.76 429.691,-107.368"/>
<polygon fill="#aaab98" stroke="#aaab98" points="348.007,-145.235 337.042,-145.358 343.471,-147.338 338.935,-149.441 338.935,-149.441 338.935,-149.441 343.471,-147.338 340.827,-153.524 348.007,-145.235 348.007,-145.235"/>
<polygon fill="#aaab98" stroke="#aaab98" points="429.943,-107.252 440.908,-107.129 434.479,-105.149 439.015,-103.046 439.015,-103.046 439.015,-103.046 434.479,-105.149 437.123,-98.9632 429.943,-107.252 429.943,-107.252"/>
</g>
<!-- Country -->
<g id="node3" class="node"><title>Country</title>
<ellipse fill="none" stroke="black" cx="272" cy="-255" rx="39.4691" ry="18"/>
<text text-anchor="middle" x="272" y="-251.3" font-family="Times,serif" font-size="14.00">Country</text>
</g>
<!-- Country&#45;&gt;Profile -->
<g id="edge3" class="edge"><title>Country&#45;&gt;Profile</title>
<path fill="none" stroke="#12a780" d="M283.111,-229.925C288.95,-217.274 296.111,-201.759 302.067,-188.854"/>
<ellipse fill="none" stroke="#12a780" cx="281.38" cy="-233.677" rx="4.00002" ry="4.00002"/>
<polygon fill="#12a780" stroke="#12a780" points="302.155,-188.665 310.431,-181.471 304.25,-184.125 306.345,-179.585 306.345,-179.585 306.345,-179.585 304.25,-184.125 302.26,-177.699 302.155,-188.665 302.155,-188.665"/>
</g>
<!-- User -->
<g id="node4" class="node"><title>User</title>
<ellipse fill="none" stroke="black" cx="357" cy="-255" rx="26.949" ry="18"/>
<text text-anchor="middle" x="357" y="-251.3" font-family="Times,serif" font-size="14.00">User</text>
</g>
<!-- User&#45;&gt;Profile -->
<g id="edge4" class="edge"><title>User&#45;&gt;Profile</title>
<path fill="none" stroke="#a99093" d="M345.829,-230.359C339.557,-217.086 331.748,-200.559 325.434,-187.197"/>
<ellipse fill="none" stroke="#a99093" cx="347.604" cy="-234.114" rx="4.00002" ry="4.00002"/>
<ellipse fill="#a99093" stroke="#a99093" cx="323.621" cy="-183.36" rx="4.00002" ry="4.00002"/>
</g>
<!-- ApplicationRecord -->
<g id="node5" class="node"><title>ApplicationRecord</title>
<ellipse fill="none" stroke="black" cx="480" cy="-255" rx="77.0154" ry="18"/>
<text text-anchor="middle" x="480" y="-251.3" font-family="Times,serif" font-size="14.00">ApplicationRecord</text>
</g>
<!-- Volunteer -->
<g id="node6" class="node"><title>Volunteer</title>
<ellipse fill="none" stroke="black" cx="413" cy="-162" rx="46.2191" ry="18"/>
<text text-anchor="middle" x="413" y="-158.3" font-family="Times,serif" font-size="14.00">Volunteer</text>
</g>
<!-- Volunteer&#45;&gt;Conversation -->
<g id="edge5" class="edge"><title>Volunteer&#45;&gt;Conversation</title>
<path fill="none" stroke="#88a38c" d="M392.091,-137.006C386.032,-130.053 379.41,-122.454 373.325,-115.471"/>
<polygon fill="#88a38c" stroke="#88a38c" points="392.282,-137.226 395.459,-147.721 395.567,-140.995 398.852,-144.765 398.852,-144.765 398.852,-144.765 395.567,-140.995 402.245,-141.808 392.282,-137.226 392.282,-137.226"/>
<polygon fill="#88a38c" stroke="#88a38c" points="373.065,-115.173 369.887,-104.677 369.78,-111.403 366.495,-107.633 366.495,-107.633 366.495,-107.633 369.78,-111.403 363.102,-110.59 373.065,-115.173 373.065,-115.173"/>
</g>
<!-- Volunteer&#45;&gt;Interest -->
<g id="edge6" class="edge"><title>Volunteer&#45;&gt;Interest</title>
<path fill="none" stroke="#034d6b" d="M431.296,-136.371C436.298,-129.638 441.717,-122.342 446.718,-115.61"/>
<polygon fill="#034d6b" stroke="#034d6b" points="431.287,-136.384 421.711,-141.728 428.305,-140.397 425.323,-144.411 425.323,-144.411 425.323,-144.411 428.305,-140.397 428.936,-147.094 431.287,-136.384 431.287,-136.384"/>
<polygon fill="#034d6b" stroke="#034d6b" points="446.802,-115.497 456.378,-110.153 449.784,-111.484 452.765,-107.47 452.765,-107.47 452.765,-107.47 449.784,-111.484 449.153,-104.786 446.802,-115.497 446.802,-115.497"/>
</g>
<!-- Admin -->
<g id="node7" class="node"><title>Admin</title>
<ellipse fill="none" stroke="black" cx="611" cy="-255" rx="35.6194" ry="18"/>
<text text-anchor="middle" x="611" y="-251.3" font-family="Times,serif" font-size="14.00">Admin</text>
</g>
<!-- Ngo -->
<g id="node8" class="node"><title>Ngo</title>
<ellipse fill="none" stroke="black" cx="504" cy="-162" rx="27" ry="18"/>
<text text-anchor="middle" x="504" y="-158.3" font-family="Times,serif" font-size="14.00">Ngo</text>
</g>
<!-- Ngo&#45;&gt;Conversation -->
<g id="edge7" class="edge"><title>Ngo&#45;&gt;Conversation</title>
<path fill="none" stroke="#c86beb" d="M473.472,-146.551C471.621,-145.686 469.787,-144.83 468,-144 443.05,-132.41 414.993,-119.585 392.723,-109.455"/>
<polygon fill="#c86beb" stroke="#c86beb" points="473.65,-146.635 480.787,-154.96 478.175,-148.761 482.7,-150.888 482.7,-150.888 482.7,-150.888 478.175,-148.761 484.614,-146.815 473.65,-146.635 473.65,-146.635"/>
<polygon fill="#c86beb" stroke="#c86beb" points="392.663,-109.427 385.421,-101.193 388.111,-107.358 383.559,-105.29 383.559,-105.29 383.559,-105.29 388.111,-107.358 381.697,-109.386 392.663,-109.427 392.663,-109.427"/>
</g>
<!-- Ngo&#45;&gt;Interest -->
<g id="edge8" class="edge"><title>Ngo&#45;&gt;Interest</title>
<path fill="none" stroke="#ba1c1c" d="M489.982,-135.84C486.472,-129.539 482.703,-122.774 479.184,-116.459"/>
<polygon fill="#ba1c1c" stroke="#ba1c1c" points="490.088,-136.029 491.024,-146.955 492.521,-140.397 494.955,-144.765 494.955,-144.765 494.955,-144.765 492.521,-140.397 498.886,-142.574 490.088,-136.029 490.088,-136.029"/>
<polygon fill="#ba1c1c" stroke="#ba1c1c" points="479.134,-116.369 478.198,-105.443 476.701,-112.001 474.267,-107.633 474.267,-107.633 474.267,-107.633 476.701,-112.001 470.336,-109.824 479.134,-116.369 479.134,-116.369"/>
</g>
<!-- Message -->
<g id="node11" class="node"><title>Message</title>
<ellipse fill="none" stroke="black" cx="352" cy="-18" rx="42.3701" ry="18"/>
<text text-anchor="middle" x="352" y="-14.3" font-family="Times,serif" font-size="14.00">Message</text>
</g>
<!-- Conversation&#45;&gt;Message -->
<g id="edge9" class="edge"><title>Conversation&#45;&gt;Message</title>
<path fill="none" stroke="#1abe49" d="M352,-63.6398C352,-58.0629 352,-52.1319 352,-46.4761"/>
<ellipse fill="none" stroke="#1abe49" cx="352" cy="-67.6966" rx="4" ry="4"/>
<polygon fill="#1abe49" stroke="#1abe49" points="352,-46.1043 356.5,-36.1043 352,-41.1043 352,-36.1043 352,-36.1043 352,-36.1043 352,-41.1043 347.5,-36.1044 352,-46.1043 352,-46.1043"/>
</g>
</g>
</svg>
