<?xml version="1.0" encoding="UTF-8" standalone="no"?>
<!DOCTYPE svg PUBLIC "-//W3C//DTD SVG 1.1//EN"
 "http://www.w3.org/Graphics/SVG/1.1/DTD/svg11.dtd">
<!-- Generated by graphviz version 2.36.0 (20140111.2315)
 -->
<!-- Title: models_diagram Pages: 1 -->
<svg width="1223pt" height="724pt"
 viewBox="0.00 0.00 1223.00 724.00" xmlns="http://www.w3.org/2000/svg" xmlns:xlink="http://www.w3.org/1999/xlink">
<g id="graph0" class="graph" transform="scale(1 1) rotate(0) translate(4 720)">
<title>models_diagram</title>
<polygon fill="none" stroke="none" points="-4,4 -4,-720 1219,-720 1219,4 -4,4"/>
<!-- _diagram_info -->
<g id="node1" class="node"><title>_diagram_info</title>
<text text-anchor="start" x="8" y="-619.6" font-family="Times,serif" font-size="13.00">Models diagram</text>
<text text-anchor="start" x="8" y="-605.6" font-family="Times,serif" font-size="13.00">Date: Jul 17 2017 &#45; 19:15</text>
<text text-anchor="start" x="8" y="-591.6" font-family="Times,serif" font-size="13.00">Migration version: 20170716230705</text>
<text text-anchor="start" x="8" y="-577.6" font-family="Times,serif" font-size="13.00">Generated by RailRoady 1.5.3</text>
<text text-anchor="start" x="8" y="-563.6" font-family="Times,serif" font-size="13.00">http://railroady.prestonlee.com</text>
</g>
<!-- Profile -->
<g id="node2" class="node"><title>Profile</title>
<path fill="none" stroke="black" d="M320,-286.5C320,-286.5 540,-286.5 540,-286.5 546,-286.5 552,-292.5 552,-298.5 552,-298.5 552,-425.5 552,-425.5 552,-431.5 546,-437.5 540,-437.5 540,-437.5 320,-437.5 320,-437.5 314,-437.5 308,-431.5 308,-425.5 308,-425.5 308,-298.5 308,-298.5 308,-292.5 314,-286.5 320,-286.5"/>
<text text-anchor="middle" x="430" y="-422.3" font-family="Times,serif" font-size="14.00">Profile</text>
<polyline fill="none" stroke="black" points="308,-414.5 552,-414.5 "/>
<text text-anchor="start" x="316" y="-399.3" font-family="Times,serif" font-size="14.00">id :bigint</text>
<text text-anchor="start" x="316" y="-384.3" font-family="Times,serif" font-size="14.00">name :character varying</text>
<text text-anchor="start" x="316" y="-369.3" font-family="Times,serif" font-size="14.00">bio :text</text>
<text text-anchor="start" x="316" y="-354.3" font-family="Times,serif" font-size="14.00">country_id :integer</text>
<text text-anchor="start" x="316" y="-339.3" font-family="Times,serif" font-size="14.00">user_id :bigint</text>
<text text-anchor="start" x="316" y="-324.3" font-family="Times,serif" font-size="14.00">created_at :timestamp without time zone</text>
<text text-anchor="start" x="316" y="-309.3" font-family="Times,serif" font-size="14.00">updated_at :timestamp without time zone</text>
<text text-anchor="start" x="316" y="-294.3" font-family="Times,serif" font-size="14.00">type :character varying</text>
</g>
<!-- Conversation -->
<g id="node9" class="node"><title>Conversation</title>
<path fill="none" stroke="black" d="M451,-166C451,-166 671,-166 671,-166 677,-166 683,-172 683,-178 683,-178 683,-230 683,-230 683,-236 677,-242 671,-242 671,-242 451,-242 451,-242 445,-242 439,-236 439,-230 439,-230 439,-178 439,-178 439,-172 445,-166 451,-166"/>
<text text-anchor="middle" x="561" y="-226.8" font-family="Times,serif" font-size="14.00">Conversation</text>
<polyline fill="none" stroke="black" points="439,-219 683,-219 "/>
<text text-anchor="start" x="447" y="-203.8" font-family="Times,serif" font-size="14.00">id :bigint</text>
<text text-anchor="start" x="447" y="-188.8" font-family="Times,serif" font-size="14.00">created_at :timestamp without time zone</text>
<text text-anchor="start" x="447" y="-173.8" font-family="Times,serif" font-size="14.00">updated_at :timestamp without time zone</text>
</g>
<!-- Profile&#45;&gt;Conversation -->
<g id="edge1" class="edge"><title>Profile&#45;&gt;Conversation</title>
<path fill="none" stroke="#a351e0" d="M499.453,-278.293C507.689,-268.485 515.841,-258.777 523.387,-249.791"/>
<polygon fill="#a351e0" stroke="#a351e0" points="499.245,-278.54 489.368,-283.305 496.03,-282.369 492.814,-286.198 492.814,-286.198 492.814,-286.198 496.03,-282.369 496.26,-289.092 499.245,-278.54 499.245,-278.54"/>
<polygon fill="#a351e0" stroke="#a351e0" points="523.418,-249.755 533.295,-244.99 526.633,-245.926 529.848,-242.097 529.848,-242.097 529.848,-242.097 526.633,-245.926 526.402,-239.203 523.418,-249.755 523.418,-249.755"/>
</g>
<!-- Interest -->
<g id="node10" class="node"><title>Interest</title>
<path fill="none" stroke="black" d="M713,-158.5C713,-158.5 933,-158.5 933,-158.5 939,-158.5 945,-164.5 945,-170.5 945,-170.5 945,-237.5 945,-237.5 945,-243.5 939,-249.5 933,-249.5 933,-249.5 713,-249.5 713,-249.5 707,-249.5 701,-243.5 701,-237.5 701,-237.5 701,-170.5 701,-170.5 701,-164.5 707,-158.5 713,-158.5"/>
<text text-anchor="middle" x="823" y="-234.3" font-family="Times,serif" font-size="14.00">Interest</text>
<polyline fill="none" stroke="black" points="701,-226.5 945,-226.5 "/>
<text text-anchor="start" x="709" y="-211.3" font-family="Times,serif" font-size="14.00">id :bigint</text>
<text text-anchor="start" x="709" y="-196.3" font-family="Times,serif" font-size="14.00">name :character varying</text>
<text text-anchor="start" x="709" y="-181.3" font-family="Times,serif" font-size="14.00">created_at :timestamp without time zone</text>
<text text-anchor="start" x="709" y="-166.3" font-family="Times,serif" font-size="14.00">updated_at :timestamp without time zone</text>
</g>
<!-- Profile&#45;&gt;Interest -->
<g id="edge2" class="edge"><title>Profile&#45;&gt;Interest</title>
<path fill="none" stroke="#45e783" d="M561.725,-285.904C615.638,-264.459 635.169,-266.601 691.024,-250.2"/>
<polygon fill="#45e783" stroke="#45e783" points="561.509,-285.992 550.55,-285.603 556.879,-287.881 552.25,-289.77 552.25,-289.77 552.25,-289.77 556.879,-287.881 553.95,-293.936 561.509,-285.992 561.509,-285.992"/>
<polygon fill="#45e783" stroke="#45e783" points="691.128,-250.169 702.001,-251.59 695.915,-248.725 700.702,-247.281 700.702,-247.281 700.702,-247.281 695.915,-248.725 699.403,-242.973 691.128,-250.169 691.128,-250.169"/>
</g>
<!-- Country -->
<g id="node3" class="node"><title>Country</title>
<path fill="none" stroke="black" d="M243.5,-564.5C243.5,-564.5 368.5,-564.5 368.5,-564.5 374.5,-564.5 380.5,-570.5 380.5,-576.5 380.5,-576.5 380.5,-613.5 380.5,-613.5 380.5,-619.5 374.5,-625.5 368.5,-625.5 368.5,-625.5 243.5,-625.5 243.5,-625.5 237.5,-625.5 231.5,-619.5 231.5,-613.5 231.5,-613.5 231.5,-576.5 231.5,-576.5 231.5,-570.5 237.5,-564.5 243.5,-564.5"/>
<text text-anchor="middle" x="306" y="-610.3" font-family="Times,serif" font-size="14.00">Country</text>
<polyline fill="none" stroke="black" points="231.5,-602.5 380.5,-602.5 "/>
<text text-anchor="start" x="239.5" y="-587.3" font-family="Times,serif" font-size="14.00">id :bigint</text>
<text text-anchor="start" x="239.5" y="-572.3" font-family="Times,serif" font-size="14.00">name :character varying</text>
</g>
<!-- Country&#45;&gt;Profile -->
<g id="edge3" class="edge"><title>Country&#45;&gt;Profile</title>
<path fill="none" stroke="#359fe0" d="M325.928,-556.876C341.846,-527.223 364.766,-484.524 385.048,-446.741"/>
<ellipse fill="none" stroke="#359fe0" cx="323.849" cy="-560.749" rx="4.00002" ry="4.00002"/>
<polygon fill="#359fe0" stroke="#359fe0" points="385.14,-446.569 393.835,-439.887 387.505,-442.164 389.87,-437.759 389.87,-437.759 389.87,-437.759 387.505,-442.164 385.905,-435.63 385.14,-446.569 385.14,-446.569"/>
</g>
<!-- User -->
<g id="node4" class="node"><title>User</title>
<path fill="none" stroke="black" d="M410.5,-474.5C410.5,-474.5 699.5,-474.5 699.5,-474.5 705.5,-474.5 711.5,-480.5 711.5,-486.5 711.5,-486.5 711.5,-703.5 711.5,-703.5 711.5,-709.5 705.5,-715.5 699.5,-715.5 699.5,-715.5 410.5,-715.5 410.5,-715.5 404.5,-715.5 398.5,-709.5 398.5,-703.5 398.5,-703.5 398.5,-486.5 398.5,-486.5 398.5,-480.5 404.5,-474.5 410.5,-474.5"/>
<text text-anchor="middle" x="555" y="-700.3" font-family="Times,serif" font-size="14.00">User</text>
<polyline fill="none" stroke="black" points="398.5,-692.5 711.5,-692.5 "/>
<text text-anchor="start" x="406.5" y="-677.3" font-family="Times,serif" font-size="14.00">id :bigint</text>
<text text-anchor="start" x="406.5" y="-662.3" font-family="Times,serif" font-size="14.00">email :character varying</text>
<text text-anchor="start" x="406.5" y="-647.3" font-family="Times,serif" font-size="14.00">encrypted_password :character varying</text>
<text text-anchor="start" x="406.5" y="-632.3" font-family="Times,serif" font-size="14.00">reset_password_token :character varying</text>
<text text-anchor="start" x="406.5" y="-617.3" font-family="Times,serif" font-size="14.00">reset_password_sent_at :timestamp without time zone</text>
<text text-anchor="start" x="406.5" y="-602.3" font-family="Times,serif" font-size="14.00">remember_created_at :timestamp without time zone</text>
<text text-anchor="start" x="406.5" y="-587.3" font-family="Times,serif" font-size="14.00">sign_in_count :integer</text>
<text text-anchor="start" x="406.5" y="-572.3" font-family="Times,serif" font-size="14.00">current_sign_in_at :timestamp without time zone</text>
<text text-anchor="start" x="406.5" y="-557.3" font-family="Times,serif" font-size="14.00">last_sign_in_at :timestamp without time zone</text>
<text text-anchor="start" x="406.5" y="-542.3" font-family="Times,serif" font-size="14.00">current_sign_in_ip :character varying</text>
<text text-anchor="start" x="406.5" y="-527.3" font-family="Times,serif" font-size="14.00">last_sign_in_ip :character varying</text>
<text text-anchor="start" x="406.5" y="-512.3" font-family="Times,serif" font-size="14.00">created_at :timestamp without time zone</text>
<text text-anchor="start" x="406.5" y="-497.3" font-family="Times,serif" font-size="14.00">updated_at :timestamp without time zone</text>
<text text-anchor="start" x="406.5" y="-482.3" font-family="Times,serif" font-size="14.00">admin :boolean</text>
</g>
<!-- User&#45;&gt;Profile -->
<g id="edge4" class="edge"><title>User&#45;&gt;Profile</title>
<path fill="none" stroke="#7cb6ab" d="M486.489,-467.391C482.365,-459.771 478.277,-452.216 474.296,-444.86"/>
<ellipse fill="none" stroke="#7cb6ab" cx="488.399" cy="-470.922" rx="4.00002" ry="4.00002"/>
<ellipse fill="#7cb6ab" stroke="#7cb6ab" cx="472.258" cy="-441.093" rx="4.00002" ry="4.00002"/>
</g>
<!-- ApplicationRecord -->
<g id="node5" class="node"><title>ApplicationRecord</title>
<ellipse fill="none" stroke="black" cx="807" cy="-595" rx="77.0154" ry="18"/>
<text text-anchor="middle" x="807" y="-591.3" font-family="Times,serif" font-size="14.00">ApplicationRecord</text>
</g>
<!-- Volunteer -->
<g id="node6" class="node"><title>Volunteer</title>
<path fill="none" stroke="black" d="M582,-286.5C582,-286.5 802,-286.5 802,-286.5 808,-286.5 814,-292.5 814,-298.5 814,-298.5 814,-425.5 814,-425.5 814,-431.5 808,-437.5 802,-437.5 802,-437.5 582,-437.5 582,-437.5 576,-437.5 570,-431.5 570,-425.5 570,-425.5 570,-298.5 570,-298.5 570,-292.5 576,-286.5 582,-286.5"/>
<text text-anchor="middle" x="692" y="-422.3" font-family="Times,serif" font-size="14.00">Volunteer</text>
<polyline fill="none" stroke="black" points="570,-414.5 814,-414.5 "/>
<text text-anchor="start" x="578" y="-399.3" font-family="Times,serif" font-size="14.00">id :bigint</text>
<text text-anchor="start" x="578" y="-384.3" font-family="Times,serif" font-size="14.00">name :character varying</text>
<text text-anchor="start" x="578" y="-369.3" font-family="Times,serif" font-size="14.00">bio :text</text>
<text text-anchor="start" x="578" y="-354.3" font-family="Times,serif" font-size="14.00">country_id :integer</text>
<text text-anchor="start" x="578" y="-339.3" font-family="Times,serif" font-size="14.00">user_id :bigint</text>
<text text-anchor="start" x="578" y="-324.3" font-family="Times,serif" font-size="14.00">created_at :timestamp without time zone</text>
<text text-anchor="start" x="578" y="-309.3" font-family="Times,serif" font-size="14.00">updated_at :timestamp without time zone</text>
<text text-anchor="start" x="578" y="-294.3" font-family="Times,serif" font-size="14.00">type :character varying</text>
</g>
<!-- Volunteer&#45;&gt;Conversation -->
<g id="edge5" class="edge"><title>Volunteer&#45;&gt;Conversation</title>
<path fill="none" stroke="#dda9d7" d="M622.547,-278.293C614.311,-268.485 606.159,-258.777 598.613,-249.791"/>
<polygon fill="#dda9d7" stroke="#dda9d7" points="622.755,-278.54 625.74,-289.092 625.97,-282.369 629.186,-286.198 629.186,-286.198 629.186,-286.198 625.97,-282.369 632.632,-283.305 622.755,-278.54 622.755,-278.54"/>
<polygon fill="#dda9d7" stroke="#dda9d7" points="598.582,-249.755 595.598,-239.203 595.367,-245.926 592.152,-242.097 592.152,-242.097 592.152,-242.097 595.367,-245.926 588.705,-244.99 598.582,-249.755 598.582,-249.755"/>
</g>
<!-- Volunteer&#45;&gt;Interest -->
<g id="edge6" class="edge"><title>Volunteer&#45;&gt;Interest</title>
<path fill="none" stroke="#aca285" d="M761.465,-278.278C767.418,-271.189 773.328,-264.152 778.996,-257.402"/>
<polygon fill="#aca285" stroke="#aca285" points="761.245,-278.54 751.368,-283.305 758.03,-282.369 754.814,-286.198 754.814,-286.198 754.814,-286.198 758.03,-282.369 758.26,-289.092 761.245,-278.54 761.245,-278.54"/>
<polygon fill="#aca285" stroke="#aca285" points="779.096,-257.283 788.973,-252.519 782.311,-253.454 785.526,-249.625 785.526,-249.625 785.526,-249.625 782.311,-253.454 782.08,-246.731 779.096,-257.283 779.096,-257.283"/>
</g>
<!-- Admin -->
<g id="node7" class="node"><title>Admin</title>
<path fill="none" stroke="black" d="M914.5,-482C914.5,-482 1203.5,-482 1203.5,-482 1209.5,-482 1215.5,-488 1215.5,-494 1215.5,-494 1215.5,-696 1215.5,-696 1215.5,-702 1209.5,-708 1203.5,-708 1203.5,-708 914.5,-708 914.5,-708 908.5,-708 902.5,-702 902.5,-696 902.5,-696 902.5,-494 902.5,-494 902.5,-488 908.5,-482 914.5,-482"/>
<text text-anchor="middle" x="1059" y="-692.8" font-family="Times,serif" font-size="14.00">Admin</text>
<polyline fill="none" stroke="black" points="902.5,-685 1215.5,-685 "/>
<text text-anchor="start" x="910.5" y="-669.8" font-family="Times,serif" font-size="14.00">id :bigint</text>
<text text-anchor="start" x="910.5" y="-654.8" font-family="Times,serif" font-size="14.00">email :character varying</text>
<text text-anchor="start" x="910.5" y="-639.8" font-family="Times,serif" font-size="14.00">encrypted_password :character varying</text>
<text text-anchor="start" x="910.5" y="-624.8" font-family="Times,serif" font-size="14.00">reset_password_token :character varying</text>
<text text-anchor="start" x="910.5" y="-609.8" font-family="Times,serif" font-size="14.00">reset_password_sent_at :timestamp without time zone</text>
<text text-anchor="start" x="910.5" y="-594.8" font-family="Times,serif" font-size="14.00">remember_created_at :timestamp without time zone</text>
<text text-anchor="start" x="910.5" y="-579.8" font-family="Times,serif" font-size="14.00">sign_in_count :integer</text>
<text text-anchor="start" x="910.5" y="-564.8" font-family="Times,serif" font-size="14.00">current_sign_in_at :timestamp without time zone</text>
<text text-anchor="start" x="910.5" y="-549.8" font-family="Times,serif" font-size="14.00">last_sign_in_at :timestamp without time zone</text>
<text text-anchor="start" x="910.5" y="-534.8" font-family="Times,serif" font-size="14.00">current_sign_in_ip :character varying</text>
<text text-anchor="start" x="910.5" y="-519.8" font-family="Times,serif" font-size="14.00">last_sign_in_ip :character varying</text>
<text text-anchor="start" x="910.5" y="-504.8" font-family="Times,serif" font-size="14.00">created_at :timestamp without time zone</text>
<text text-anchor="start" x="910.5" y="-489.8" font-family="Times,serif" font-size="14.00">updated_at :timestamp without time zone</text>
</g>
<!-- Ngo -->
<g id="node8" class="node"><title>Ngo</title>
<path fill="none" stroke="black" d="M844,-286.5C844,-286.5 1064,-286.5 1064,-286.5 1070,-286.5 1076,-292.5 1076,-298.5 1076,-298.5 1076,-425.5 1076,-425.5 1076,-431.5 1070,-437.5 1064,-437.5 1064,-437.5 844,-437.5 844,-437.5 838,-437.5 832,-431.5 832,-425.5 832,-425.5 832,-298.5 832,-298.5 832,-292.5 838,-286.5 844,-286.5"/>
<text text-anchor="middle" x="954" y="-422.3" font-family="Times,serif" font-size="14.00">Ngo</text>
<polyline fill="none" stroke="black" points="832,-414.5 1076,-414.5 "/>
<text text-anchor="start" x="840" y="-399.3" font-family="Times,serif" font-size="14.00">id :bigint</text>
<text text-anchor="start" x="840" y="-384.3" font-family="Times,serif" font-size="14.00">name :character varying</text>
<text text-anchor="start" x="840" y="-369.3" font-family="Times,serif" font-size="14.00">bio :text</text>
<text text-anchor="start" x="840" y="-354.3" font-family="Times,serif" font-size="14.00">country_id :integer</text>
<text text-anchor="start" x="840" y="-339.3" font-family="Times,serif" font-size="14.00">user_id :bigint</text>
<text text-anchor="start" x="840" y="-324.3" font-family="Times,serif" font-size="14.00">created_at :timestamp without time zone</text>
<text text-anchor="start" x="840" y="-309.3" font-family="Times,serif" font-size="14.00">updated_at :timestamp without time zone</text>
<text text-anchor="start" x="840" y="-294.3" font-family="Times,serif" font-size="14.00">type :character varying</text>
</g>
<!-- Ngo&#45;&gt;Conversation -->
<g id="edge7" class="edge"><title>Ngo&#45;&gt;Conversation</title>
<path fill="none" stroke="#196285" d="M822.275,-285.904C765.361,-263.265 746.762,-266.912 692,-250 687.029,-248.465 681.964,-246.868 676.854,-245.231"/>
<polygon fill="#196285" stroke="#196285" points="822.491,-285.992 830.05,-293.936 827.121,-287.881 831.75,-289.77 831.75,-289.77 831.75,-289.77 827.121,-287.881 833.45,-285.603 822.491,-285.992 822.491,-285.992"/>
<polygon fill="#196285" stroke="#196285" points="676.501,-245.117 668.373,-237.756 671.744,-243.577 666.987,-242.037 666.987,-242.037 666.987,-242.037 671.744,-243.577 665.602,-246.319 676.501,-245.117 676.501,-245.117"/>
</g>
<!-- Ngo&#45;&gt;Interest -->
<g id="edge8" class="edge"><title>Ngo&#45;&gt;Interest</title>
<path fill="none" stroke="#c97991" d="M884.535,-278.278C878.582,-271.189 872.672,-264.152 867.004,-257.402"/>
<polygon fill="#c97991" stroke="#c97991" points="884.755,-278.54 887.74,-289.092 887.97,-282.369 891.186,-286.198 891.186,-286.198 891.186,-286.198 887.97,-282.369 894.632,-283.305 884.755,-278.54 884.755,-278.54"/>
<polygon fill="#c97991" stroke="#c97991" points="866.904,-257.283 863.92,-246.731 863.689,-253.454 860.474,-249.625 860.474,-249.625 860.474,-249.625 863.689,-253.454 857.027,-252.519 866.904,-257.283 866.904,-257.283"/>
</g>
<!-- Message -->
<g id="node11" class="node"><title>Message</title>
<path fill="none" stroke="black" d="M451,-0.5C451,-0.5 671,-0.5 671,-0.5 677,-0.5 683,-6.5 683,-12.5 683,-12.5 683,-109.5 683,-109.5 683,-115.5 677,-121.5 671,-121.5 671,-121.5 451,-121.5 451,-121.5 445,-121.5 439,-115.5 439,-109.5 439,-109.5 439,-12.5 439,-12.5 439,-6.5 445,-0.5 451,-0.5"/>
<text text-anchor="middle" x="561" y="-106.3" font-family="Times,serif" font-size="14.00">Message</text>
<polyline fill="none" stroke="black" points="439,-98.5 683,-98.5 "/>
<text text-anchor="start" x="447" y="-83.3" font-family="Times,serif" font-size="14.00">id :bigint</text>
<text text-anchor="start" x="447" y="-68.3" font-family="Times,serif" font-size="14.00">sender_id :integer</text>
<text text-anchor="start" x="447" y="-53.3" font-family="Times,serif" font-size="14.00">content :character varying</text>
<text text-anchor="start" x="447" y="-38.3" font-family="Times,serif" font-size="14.00">created_at :timestamp without time zone</text>
<text text-anchor="start" x="447" y="-23.3" font-family="Times,serif" font-size="14.00">updated_at :timestamp without time zone</text>
<text text-anchor="start" x="447" y="-8.3" font-family="Times,serif" font-size="14.00">conversation_id :integer</text>
</g>
<!-- Conversation&#45;&gt;Message -->
<g id="edge9" class="edge"><title>Conversation&#45;&gt;Message</title>
<path fill="none" stroke="#4db49d" d="M561,-157.793C561,-149.537 561,-140.747 561,-131.969"/>
<ellipse fill="none" stroke="#4db49d" cx="561" cy="-161.954" rx="4" ry="4"/>
<polygon fill="#4db49d" stroke="#4db49d" points="561,-131.701 565.5,-121.701 561,-126.701 561,-121.701 561,-121.701 561,-121.701 561,-126.701 556.5,-121.701 561,-131.701 561,-131.701"/>
</g>
</g>
</svg>
